<svg id="Calque_1" data-name="Calque 1" xmlns="http://www.w3.org/2000/svg" viewBox="0 0 2916.32 3306.5"><path d="M3282.28,3849.6l-612.15-552c-352.5,173.83-717.28,209.79-1093.58,97.2-287.81-86.11-525.41-249.86-713.5-484C479.12,2433,440.34,1768.82,748.84,1255c333.49-555.44,896.62-728.53,1294-710.66-2.39,1.89-4,3.39-5.81,4.53C1886.45,643,1764.79,766.44,1667.52,914.39c-94.18,143.25-160.65,298.67-202.29,464.85-1.19,4.75-2.21,9.55-2,14.7,1.13-3.25,2.31-6.47,3.37-9.74q101.91-315.37,349-536.3,215.61-192.21,495.36-266a51.75,51.75,0,0,1,26.33-.42Q2650.33,655.89,2903,855q293.82,232,441.07,576.61c43.51,101.74,74.37,207.3,93.47,316.26a1456.55,1456.55,0,0,1,19,163.66,1423.2,1423.2,0,0,1,1,162.89Q3436.7,2461.75,3228,2788.89a31.46,31.46,0,0,1-11.22,10.94A1199.89,1199.89,0,0,1,2714,2954.5a1191.17,1191.17,0,0,1-142.87,3c-154.09-6.2-302.3-39.06-442.85-102.86q-422.12-191.62-614.46-614c-1.25-2.73-2.51-5.44-3.86-8.12-.23-.46-.92-.7-2.85-2.07,1.56,5,2.59,8.75,3.87,12.4,31,88.83,73.34,172.06,124.9,250.6,121.33,184.79,280.84,326.45,479.75,423.32,103.86,50.57,212.93,85.49,326.21,107.65a1660.92,1660.92,0,0,0,174,24.11c76.51,6.71,153.14,7.86,229.76,4.73,49.21-2,98.3-7.12,147.44-10.91,6.3-.48,12.58-1.3,18.86-2,11.1-1.22,11.52-1,14.94,9.5q11.58,35.61,23,71.26,115.56,358.2,231.11,716.4c1.2,3.72,2.24,7.48,3.36,11.22Z" transform="translate(-543.11 -543.1)"/></svg>